<svg viewBox="0 0 830.0999756 397.2000122" xmlns="http://www.w3.org/2000/svg">
    <linearGradient gradientTransform="translate(0 159.92)" gradientUnits="userSpaceOnUse" id="a" x1="337.2" x2="567.2" y1="-4.92"
                    y2="-4.92">
        <stop offset="0" stop-color="#2bdcee"/>
        <stop offset="1" stop-color="#298afb"/>
    </linearGradient>
    <circle cx="452.2" cy="155" fill="url(#a)" r="115"/>
    <linearGradient gradientTransform="translate(0 159.92)" gradientUnits="userSpaceOnUse" id="b" x1="431.2" x2="739.2" y1="-5.92"
                    y2="-5.92">
        <stop offset="0" stop-color="#fa9a5e"/>
        <stop offset="1" stop-color="#ed577d"/>
    </linearGradient>
    <circle cx="585.2" cy="154" fill="url(#b)" r="154"/>
    <linearGradient gradientTransform="translate(0 159.92)" gradientUnits="userSpaceOnUse" id="c" x1="49.265" x2="780.6" y1="195.43"
                    y2="195.43">
        <stop offset="0" stop-color="#fa9a5e"/>
        <stop offset="1" stop-color="#ed577d"/>
    </linearGradient>
    <path d="M780.6 336.4c0-6.3-5.1-11.4-11.4-11.4-1 0-2 .1-3 .4-17.9 5-35.3 11.5-52.1 19.5-81.6 38.6-176.2 38.6-257.7 0-88-42-190.3-42-278.3 0-36.8 17.2-76.7 27-117.3 28.7-6 .2-11 4.8-11.5 10.9-.5 6.4 4.4 12 10.8 12.5h1.2c44.1-1.4 87.4-12.1 127.1-31.5 81.8-39.2 176.9-39.2 258.7 0 43 21.5 90.6 31.8 138.2 31.8 48.6 0 95.3-10.3 139.1-31.8 15.5-7.4 31.5-13.4 48-18.1 4.7-1.4 8.1-5.9 8.2-11z"
          fill="url(#c)"/>
    <path d="M780 90.3c9.6 0 17.6 1.1 24.1 3.3 5.8 1.8 11.1 5.1 15.4 9.4 3.9 4.2 6.8 9.3 8.2 14.9 1.7 6.4 2.5 12.9 2.4 19.5v67.8c-4.7 1-11.2 2.2-19.5 3.6-10 1.5-20.1 2.2-30.2 2.1-6.8.1-13.6-.6-20.2-2-5.6-1.1-10.9-3.3-15.7-6.5-4.3-2.9-7.8-7-10.1-11.7-2.3-4.8-3.5-10.7-3.5-17.7 0-6.7 1.3-12.4 4-17.1 2.6-4.6 6.3-8.4 10.8-11.2 4.8-2.9 10.1-4.9 15.5-6 6-1.3 12.1-1.9 18.2-1.9 3.8 0 7.5.2 11.3.5 2.7.3 5.4.7 8 1.4v-3.1c0-5.5-1.7-10-5-13.4s-9.2-5-17.5-5c-5.5 0-11 .4-16.4 1.2-4.8.6-9.5 1.8-14 3.4l-4.2-26.3c1.9-.6 4.3-1.2 7.1-1.9s5.9-1.2 9.3-1.8c3.3-.5 6.9-.9 10.6-1.3s7.6-.2 11.4-.2zm2.6 95.4c3.2 0 6.3-.1 9.2-.2 2.3-.1 4.7-.3 7-.7v-24.7c-1.3-.3-3.3-.6-5.9-.9-2.4-.3-4.8-.4-7.2-.4-2.9 0-5.8.2-8.6.5-2.5.3-4.9 1-7.1 2.1-1.9.9-3.6 2.4-4.8 4.2-1.2 2-1.8 4.2-1.8 6.6 0 5.1 1.7 8.6 5.1 10.6s8.1 2.9 14.1 2.9zM698.9 137.4v67.8c-4.7 1-11.2 2.2-19.5 3.6l-13.2 2v-167l32.6-5.3v144.6M641 150.7c.1 8.4-1.2 16.8-3.9 24.8-2.4 7.1-6.3 13.7-11.4 19.3-5 5.3-11.1 9.6-17.8 12.4-7.4 3-15.3 4.5-23.3 4.4-7.9.1-15.8-1.4-23.1-4.4-6.8-2.8-12.8-7-17.8-12.4-5.1-5.6-9.1-12.1-11.6-19.3-2.9-8-4.3-16.4-4.2-24.8-.1-8.4 1.3-16.8 4.3-24.7 2.6-7.1 6.6-13.5 11.8-19 5.1-5.3 11.2-9.4 17.9-12.3 7.2-3 14.9-4.5 22.7-4.4 7.8-.1 15.6 1.4 22.9 4.4 6.7 2.8 12.8 7 17.8 12.3 5.1 5.5 9.1 12 11.6 19 2.8 7.9 4.2 16.2 4.1 24.7zm-33.2 0c0-10.1-2-18-6-23.7s-9.7-8.6-17.2-8.6c-7.4 0-13.2 2.9-17.3 8.6s-6.1 13.7-6.1 23.7c0 10.1 2 18.1 6.1 24s9.8 8.9 17.3 8.9c7.4 0 13.2-3 17.2-8.9s6-13.9 6-24zM508.2 150.7c.1 8.4-1.2 16.8-3.9 24.8-2.4 7.1-6.3 13.7-11.4 19.3-5 5.3-11.1 9.6-17.8 12.4-7.4 3-15.3 4.5-23.3 4.4-7.9.1-15.8-1.4-23.1-4.4-6.8-2.8-12.8-7-17.8-12.4-5.1-5.6-9.1-12.1-11.6-19.3-2.9-8-4.3-16.4-4.2-24.8-.1-8.4 1.4-16.8 4.3-24.7 2.6-7.1 6.6-13.5 11.8-19 5.1-5.3 11.2-9.4 17.9-12.3 7.2-3 14.9-4.5 22.6-4.4 7.8-.1 15.6 1.4 22.9 4.4 6.7 2.8 12.8 7 17.8 12.3 5.1 5.5 9.1 12 11.6 19 2.9 7.9 4.3 16.2 4.2 24.7zm-33.3 0c0-10.1-2-18-6-23.7s-9.7-8.6-17.2-8.6c-7.4 0-13.2 2.9-17.3 8.6s-6.1 13.7-6.1 23.7c0 10.1 2 18.1 6.1 24s9.9 8.9 17.3 8.9 13.2-3 17.2-8.9 6-13.9 6-24zM369.9 204.7c-2.9.9-6.3 1.7-10.1 2.5s-7.8 1.5-11.9 2.1-8.4 1.1-12.7 1.4c-4.3.4-8.4.5-12.4.5-8.6.1-17.2-1.3-25.4-4.2-7.1-2.5-13.5-6.6-18.8-11.9-5.2-5.4-9.2-11.8-11.7-18.8-2.8-8-4.1-16.4-4-24.8-.1-8.6 1.1-17.1 3.5-25.3 2.1-7 5.5-13.5 10.1-19.1 4.3-5.2 9.9-9.3 16.1-12 6.9-2.9 14.3-4.3 21.7-4.1 4.1 0 8.2.4 12.1 1.3 3.7.9 7.3 2.1 10.8 3.7V43.9l32.6-5.3v166.1h.1zM296.2 150c0 10.1 2.3 18.2 6.8 24.3s11.2 9.2 20.1 9.2c2.9 0 5.6-.1 8.1-.3s4.5-.5 6.1-.8V123c-2.5-1.5-5.2-2.6-8-3.3-3.3-.9-6.6-1.3-10-1.3-15.4.1-23.1 10.6-23.1 31.6zM188.7 90.3c9.6 0 17.6 1.1 24.1 3.3 5.8 1.8 11.1 5.1 15.4 9.4 3.9 4.2 6.8 9.3 8.2 14.9 1.7 6.4 2.5 12.9 2.4 19.5v67.8c-4.7 1-11.2 2.2-19.5 3.6-10 1.5-20.1 2.2-30.2 2.1-6.8.1-13.6-.6-20.2-2a42.1 42.1 0 0 1-15.6-6.5c-4.3-2.9-7.8-7-10.1-11.7-2.3-4.8-3.5-10.7-3.5-17.7 0-6.7 1.3-12.4 4-17.1 2.6-4.6 6.3-8.4 10.8-11.2 4.8-2.9 10.1-4.9 15.5-6 6-1.3 12.1-1.9 18.2-1.9 3.8 0 7.5.2 11.3.5 2.7.3 5.4.7 8 1.4v-3.1c0-5.5-1.7-10-5-13.4s-9.2-5-17.5-5c-5.5 0-11 .4-16.4 1.2-4.8.6-9.5 1.8-14 3.4l-4.2-26.3c1.9-.6 4.3-1.2 7.1-1.9s5.9-1.2 9.3-1.8c3.3-.5 6.9-.9 10.6-1.3 3.7 0 7.5-.2 11.3-.2zm2.7 95.4c3.2 0 6.3-.1 9.2-.2 2.3-.1 4.7-.3 7-.7v-24.7c-1.3-.3-3.3-.6-5.9-.9-2.4-.3-4.8-.4-7.2-.4-2.9 0-5.8.2-8.6.5-2.5.3-4.9 1-7.1 2.1-1.9.9-3.6 2.4-4.8 4.2-1.2 2-1.8 4.2-1.8 6.6 0 5.1 1.7 8.6 5.1 10.6s8.1 2.9 14.1 2.9zM92.2 180.4c-4.4.6-8.9.9-13.3.9-7.9 0-14.6-1.3-20.1-3.8-5.3-2.3-9.9-5.9-13.5-10.4-3.6-4.6-6.1-10-7.4-15.6-1.6-6.4-2.3-13-2.3-19.6 0-8.8 1.2-16.2 3.5-22.3 2-5.6 5.2-10.7 9.3-15 3.7-3.8 8.3-6.7 13.3-8.4 5-1.7 10.2-2.6 15.4-2.6 7.1-.1 14.3.8 21.2 2.6 3.5 1 6.9 2.1 10.2 3.5L124.4 65c-1.2-.7-3.1-1.7-5.7-3.1-3.2-1.5-6.5-2.8-9.8-3.8-4.5-1.4-9.1-2.5-13.8-3.3-5.8-1-11.6-1.5-17.5-1.4-10.5-.1-21 1.7-30.8 5.3-9.2 3.3-17.6 8.6-24.5 15.4C15 81.1 9.5 89.6 5.9 99 2 108.8 0 120 0 132.5c0 25.2 6.5 44.7 19.4 58.4s31.7 20.6 56.3 20.6c10.3.1 20.5-1.1 30.4-3.6 3.1-.8 6-1.7 8.6-2.6l-15-26.3c-2.3.6-4.8 1-7.5 1.4z"
          fill="#FFF"/>
</svg>
