<?xml version="1.0" encoding="UTF-8" standalone="yes"?>
<svg fill="none" height="58" width="172" xmlns="http://www.w3.org/2000/svg">
    <path clip-rule="evenodd" d="M69.85 34.28a23.28 23.28 0 01-23.18 23.38A23.28 23.28 0 0123.5 34.28 23.28 23.28 0 0146.67 10.9a23.28 23.28 0 0123.18 23.38zm-12.67.05a10.6 10.6 0 01-10.56 10.65 10.6 10.6 0 01-10.55-10.65 10.6 10.6 0 0110.55-10.65 10.6 10.6 0 0110.56 10.65z"
          fill="url(#paint0_linear)"
          fill-rule="evenodd" style=""/>
    <path
        d="M10.02 32.56c.01-2.75 1.57-4.42 4.06-4.42 2.52 0 4.01 1.67 4 4.42v11.62c0 1.91 0 2.87.58 3.47.6.6 1.55.6 3.46.6h1.92c1.9 0 2.86 0 3.46-.6.59-.6.59-1.56.59-3.47V30.46C28.1 24.4 24.28 20 18.36 20c-4.1 0-7.35 2.15-8.56 5.67h-.3v-1.23c0-1.92 0-2.88-.58-3.48-.6-.6-1.55-.6-3.46-.6H4.05c-1.91 0-2.86 0-3.46.6-.59.6-.59 1.56-.59 3.48v19.74c0 1.91 0 2.87.6 3.47.59.6 1.54.6 3.45.6h1.92c1.9 0 2.86 0 3.45-.6.6-.6.6-1.56.6-3.47V32.56zm55.25 11.62c0 1.91 0 2.87.59 3.47.6.6 1.55.6 3.45.6h1.93c1.9 0 2.86 0 3.45-.6.6-.6.6-1.56.6-3.47v-12.2c0-2.43 1.26-3.92 3.33-3.92 2.07 0 3.41 1.5 3.41 3.92v12.2c0 1.91 0 2.87.6 3.47.59.6 1.54.6 3.45.6h1.49c1.9 0 2.86 0 3.45-.6.6-.6.6-1.56.6-3.47v-12.2c0-2.43 1.26-3.92 3.33-3.92 2.07 0 3.41 1.5 3.41 3.92v12.2c0 1.91 0 2.87.6 3.47.59.6 1.54.6 3.45.6h1.92c1.9 0 2.86 0 3.46-.6.59-.6.59-1.56.59-3.47V29.44c0-5.71-3.67-9.44-9-9.44-4.14 0-7.48 2.25-8.42 5.67h-.3c-.57-3.42-3.7-5.67-7.61-5.67a8.07 8.07 0 00-7.99 5.67h-.29v-1.23c0-1.92 0-2.88-.59-3.48-.6-.6-1.54-.6-3.45-.6H69.3c-1.9 0-2.86 0-3.45.6-.6.6-.6 1.56-.6 3.48v19.74zm48.05 0c0 1.91 0 2.87.6 3.47.58.6 1.54.6 3.45.6h1.92c1.9 0 2.86 0 3.45-.6.6-.6.6-1.56.6-3.47V24.44c0-1.92 0-2.88-.6-3.48-.6-.6-1.55-.6-3.45-.6h-1.92c-1.91 0-2.87 0-3.46.6-.6.6-.6 1.56-.6 3.48v19.74zm25.13-11.62c.02-2.75 1.58-4.42 4.07-4.42 2.52 0 4 1.67 3.99 4.42v11.62c0 1.91 0 2.87.6 3.47.58.6 1.54.6 3.45.6h1.92c1.9 0 2.86 0 3.45-.6.6-.6.6-1.56.6-3.47V30.46c.01-6.06-3.81-10.46-9.73-10.46-4.1 0-7.35 2.15-8.56 5.67h-.3v-1.23c0-1.92 0-2.88-.59-3.48-.59-.6-1.54-.6-3.45-.6h-1.41c-1.91 0-2.87 0-3.46.6-.6.6-.6 1.56-.6 3.48v19.74c0 1.91 0 2.87.6 3.47.6.6 1.55.6 3.46.6h1.92c1.9 0 2.86 0 3.45-.6.6-.6.6-1.56.6-3.47V32.56zm23.02 11.62c0 1.91 0 2.87.6 3.47.59.6 1.54.6 3.45.6h1.92c1.9 0 2.86 0 3.45-.6.6-.6.6-1.56.6-3.47V24.44c0-1.92 0-2.88-.6-3.48-.59-.6-1.54-.6-3.45-.6h-1.92c-1.91 0-2.87 0-3.46.6-.59.6-.59 1.56-.59 3.48v19.74z"
        fill="#fff" style=""/>
    <path d="M118.3 11.2c3.06 0 5.54-2.51 5.54-5.6 0-3.1-2.48-5.6-5.55-5.6a5.57 5.57 0 00-5.55 5.6c0 3.09 2.49 5.6 5.55 5.6z"
          fill="url(#paint1_linear)" style=""/>
    <path d="M166.45 16.79c3.07 0 5.55-2.5 5.55-5.6 0-3.09-2.48-5.6-5.55-5.6a5.57 5.57 0 00-5.55 5.6c0 3.1 2.49 5.6 5.55 5.6z"
          fill="url(#paint2_linear)" style=""/>
    <defs>
        <linearGradient gradientUnits="userSpaceOnUse" id="paint0_linear" x1="46.67" x2="46.67" y1="10.9" y2="57.66">
            <stop stop-color="#8830E0"/>
            <stop offset="1" stop-color="#C080FF"/>
        </linearGradient>
        <linearGradient gradientUnits="userSpaceOnUse" id="paint1_linear" x1="118.29" x2="118.29" y2="11.19">
            <stop stop-color="#FE720A"/>
            <stop offset="1" stop-color="#FFA843"/>
        </linearGradient>
        <linearGradient gradientUnits="userSpaceOnUse" id="paint2_linear" x1="166.45" x2="166.45" y1="5.6" y2="16.79">
            <stop stop-color="#FE720A"/>
            <stop offset="1" stop-color="#FFA843"/>
        </linearGradient>
    </defs>
</svg>
